<?xml version="1.0" standalone="no"?><!DOCTYPE svg PUBLIC "-//W3C//DTD SVG 1.1//EN" "http://www.w3.org/Graphics/SVG/1.1/DTD/svg11.dtd"><svg t="1625124137745" class="icon" viewBox="0 0 1024 1024" version="1.1" xmlns="http://www.w3.org/2000/svg" p-id="2229" xmlns:xlink="http://www.w3.org/1999/xlink" width="200" height="200"><defs><style type="text/css"></style></defs><path d="M610.17396793 776.61460366v-102.07492096q0-32.50793699-18.85460252-32.50793699-11.05269874 0-21.45523826 10.40253952v145.63555555q10.40253952 10.40253952 21.45523826 10.40254066 18.85460366 0 18.85460252-31.85777778z m119.62920618-79.3193654h42.91047652v-22.10539748q0-33.15809507-21.45523826-33.15809507t-21.45523826 33.15809507v22.10539748zM358.56253952 524.35301603v45.51111112h-52.01269874v275.01714318h-48.11174571V569.86412715h-50.7123803v-45.51111112h150.83682475z m130.68190493 81.92v238.6082543h-43.5606346v-26.00634937q-25.35619015 29.25714318-49.41206414 29.25714205-21.45523826 0-27.30666667-18.20444445-3.90095189-11.05269874-3.90095189-35.10857045v-188.54603208h42.91047651v175.54285682q0 15.60380985 0.65015808 16.90412715 0.65015922 9.75238144 9.75238144 9.75238144 13.00317411 0 27.30666667-20.15492096v-182.04444445h43.5606346z m163.84 72.16761856v94.92317526q0 33.80825429-4.55111112 47.46158649-7.80190493 27.30666667-34.45841237 27.30666667-22.75555555 0-44.21079381-26.65650746v23.40571478h-43.5606346V524.35301603h43.5606346v104.67555556q20.80507904-26.00634937 44.21079381-26.00634937 26.65650745 0 34.45841237 27.30666667 4.55111111 13.65333333 4.55111112 48.1117457z m163.18984078 83.87047652v5.85142841q0 18.85460366-1.3003173 27.95682589-1.95047651 14.30349255-9.7523803 26.00634936-17.55428523 26.00634937-52.01269874 26.00634824-33.80825429 0-52.66285682-24.70603094-13.65333333-17.55428523-13.65333333-55.91365063v-83.87047651q0-38.35936541 13.00317411-55.91365064 18.85460366-24.70603207 52.01269874-24.70603207t50.7123803 24.70603207q13.65333333 18.85460366 13.65333334 55.91365064v49.412063h-86.47111112v42.2603173q0 33.15809507 22.10539748 33.15809621 15.60380985 0 19.50476174-16.90412715 0-0.65015922 0.32507904-4.55111111t0.32508018-10.72761969V762.31111111h44.21079268zM523.05269874 226.5803173v101.42476174q0 33.15809507-20.80508018 33.15809507t-20.80507904-33.15809507V226.5803173q0-33.80825429 20.80507904-33.80825429t20.80508018 33.80825429z m346.53460252 463.56317525q0-115.07809507-12.35301603-169.04127033-6.50158763-28.60698397-27.95682475-47.78666667t-49.41206414-22.43047651q-88.42158763-9.75238144-267.86539634-9.7523803-178.79365063 0-267.21523826 9.7523803-28.60698397 3.25079381-49.73714318 22.43047651T167.41587285 521.10222222q-13.00317411 56.56380985-13.00317411 169.04127033 0 114.42793699 13.00317411 169.04126919 6.50158763 27.95682589 27.63174571 47.46158763t49.0869851 22.75555556q89.07174571 9.75238144 267.86539634 9.7523803t267.86539634-9.7523803q27.95682589-3.25079381 49.0869851-22.75555556t27.63174571-47.46158763q13.00317411-54.61333333 13.00317411-169.04126919zM378.71746048 266.89015922l58.51428523-192.44698511h-48.76190493l-33.15809507 126.78095304-34.45841238-126.78095304h-50.71238144q4.55111111 14.95365063 14.95365177 44.86095304l15.60380871 44.86095189q22.75555555 66.96634937 29.9073024 102.72508018v130.68190379h48.11174571V266.89015922z m187.89587285 52.66285681V235.03238144q0-37.70920619-13.65333333-56.56380985-18.85460366-24.70603207-50.71238144-24.70603207-33.15809507 0-50.7123803 24.70603207-13.65333333 18.85460366-13.65333333 56.56380985v84.52063459q0 37.70920619 13.65333333 56.56380986 17.55428523 24.70603207 50.7123803 24.70603093 31.85777778 0 50.71238144-24.70603093 13.65333333-17.55428523 13.65333333-56.56380986z m117.67872968 78.01904698h43.56063573V157.01333333h-43.56063573v183.99492096q-14.30349255 20.15492096-27.30666667 20.15491982-9.75238144 0-10.40253952-10.40253952-0.65015922-1.3003173-0.65015808-16.90412714V157.01333333h-43.56063573v190.49650745q0 24.05587285 3.90095302 35.75873081 7.15174571 17.55428523 27.95682475 17.55428523 23.40571477 0 50.06222223-29.25714205v26.00634824z m327.02984192-197.64825316v624.1523803q0 77.36888889-54.93841238 132.3073024T824.07619015 1011.32190493H199.92380985q-77.36888889 0-132.3073024-54.93841238T12.67809507 824.07619015V199.92380985q0-77.36888889 54.93841238-132.3073024T199.92380985 12.67809507h624.1523803q77.36888889 0 132.3073024 54.93841238T1011.32190493 199.92380985z" fill="#d81e06" p-id="2230"></path></svg>